<svg width="800" height="600" viewBox="0 0 800 600" xmlns="http://www.w3.org/2000/svg">
  <defs>
    <linearGradient id="bg" x1="0%" y1="0%" x2="100%" y2="100%">
      <stop offset="0%" style="stop-color:#FFF8E7"/>
      <stop offset="100%" style="stop-color:#fef3c7"/>
    </linearGradient>
    <pattern id="arch" x="0" y="0" width="100" height="120" patternUnits="userSpaceOnUse">
      <g fill="none" stroke="#F2B91C" stroke-width="1.2" opacity="0.4">
        <path d="M30 100 L30 50 Q30 20 50 20 Q70 20 70 50 L70 100"/>
        <path d="M40 100 L40 55 Q40 35 50 35 Q60 35 60 55 L60 100"/>
        <path d="M0 60 L30 60 M70 60 L100 60"/>
        <circle cx="50" cy="50" r="3" fill="#05B34D" opacity="0.5"/>
        <path d="M0 100 L100 100"/>
      </g>
    </pattern>
  </defs>
  <rect width="800" height="600" fill="url(#bg)"/>
  <rect width="800" height="600" fill="url(#arch)"/>
  <g transform="translate(400,300)" opacity="0.9">
    <path d="M-50 60 L-50 -20 Q-50 -60 0 -60 Q50 -60 50 -20 L50 60 Z" fill="#F2B91C" opacity="0.12"/>
    <path d="M-50 60 L-50 -20 Q-50 -60 0 -60 Q50 -60 50 -20 L50 60 Z" fill="none" stroke="#F2B91C" stroke-width="2.5"/>
    <path d="M-35 60 L-35 -15 Q-35 -45 0 -45 Q35 -45 35 -15 L35 60 Z" fill="none" stroke="#05B34D" stroke-width="1.5"/>
    <path d="M-20 60 L-20 -5 Q-20 -25 0 -25 Q20 -25 20 -5 L20 60" fill="none" stroke="#05B34D" stroke-width="1" opacity="0.6"/>
    <circle cx="0" cy="-35" r="6" fill="#05B34D" opacity="0.7"/>
    <path d="M-50 60 L50 60" stroke="#F2B91C" stroke-width="3"/>
  </g>
</svg>
