<svg width="800" height="600" viewBox="0 0 800 600" xmlns="http://www.w3.org/2000/svg">
  <defs>
    <linearGradient id="bg" x1="0%" y1="0%" x2="100%" y2="100%">
      <stop offset="0%" style="stop-color:#E9FBF1"/>
      <stop offset="100%" style="stop-color:#c8f0d9"/>
    </linearGradient>
    <pattern id="books" x="0" y="0" width="100" height="80" patternUnits="userSpaceOnUse">
      <g fill="none" stroke="#05B34D" stroke-width="1.2" opacity="0.4">
        <path d="M10 20 L50 15 L90 20 L90 60 L50 65 L10 60 Z"/>
        <path d="M50 15 L50 65"/>
        <path d="M15 25 L45 22 M55 22 L85 25 M15 35 L45 32 M55 32 L85 35 M15 45 L45 42 M55 42 L85 45"/>
        <circle cx="50" cy="40" r="2" fill="#F2B91C" opacity="0.5"/>
      </g>
    </pattern>
  </defs>
  <rect width="800" height="600" fill="url(#bg)"/>
  <rect width="800" height="600" fill="url(#books)"/>
  <g transform="translate(400,300)" opacity="0.9">
    <path d="M-60 -20 L0 -30 L60 -20 L60 30 L0 40 L-60 30 Z" fill="#05B34D" opacity="0.12"/>
    <path d="M-60 -20 L0 -30 L60 -20 L60 30 L0 40 L-60 30 Z" fill="none" stroke="#05B34D" stroke-width="2"/>
    <path d="M0 -30 L0 40" stroke="#05B34D" stroke-width="2"/>
    <path d="M-50 -10 L-10 -16 M10 -16 L50 -10 M-50 0 L-10 -6 M10 -6 L50 0 M-50 10 L-10 4 M10 4 L50 10 M-50 20 L-10 14 M10 14 L50 20" stroke="#F2B91C" stroke-width="1" opacity="0.6"/>
    <circle cx="0" cy="5" r="6" fill="#F2B91C" opacity="0.8"/>
  </g>
</svg>
