<svg width="800" height="600" viewBox="0 0 800 600" xmlns="http://www.w3.org/2000/svg">
  <defs>
    <linearGradient id="bg" x1="0%" y1="0%" x2="100%" y2="100%">
      <stop offset="0%" style="stop-color:#E9FBF1"/>
      <stop offset="100%" style="stop-color:#c8f0d9"/>
    </linearGradient>
    <pattern id="mosque" x="0" y="0" width="120" height="120" patternUnits="userSpaceOnUse">
      <g fill="none" stroke="#05B34D" stroke-width="1.2" opacity="0.4">
        <path d="M60 20 Q80 40 60 60 Q40 40 60 20 Z"/>
        <path d="M60 20 L60 100"/>
        <circle cx="60" cy="60" r="25" fill="none"/>
        <path d="M0 60 L40 60 M80 60 L120 60 M60 0 L60 40 M60 80 L60 120"/>
        <circle cx="0" cy="0" r="4" fill="#F2B91C" opacity="0.5"/>
        <circle cx="120" cy="0" r="4" fill="#F2B91C" opacity="0.5"/>
        <circle cx="0" cy="120" r="4" fill="#F2B91C" opacity="0.5"/>
        <circle cx="120" cy="120" r="4" fill="#F2B91C" opacity="0.5"/>
      </g>
    </pattern>
  </defs>
  <rect width="800" height="600" fill="url(#bg)"/>
  <rect width="800" height="600" fill="url(#mosque)"/>
  <g transform="translate(400,300)" opacity="0.85">
    <path d="M0 -70 L25 -50 L25 0 L50 0 L50 50 L-50 50 L-50 0 L-25 0 L-25 -50 Z" fill="#05B34D" opacity="0.15"/>
    <path d="M0 -70 L25 -50 L25 0 L50 0 L50 50 L-50 50 L-50 0 L-25 0 L-25 -50 Z" fill="none" stroke="#05B34D" stroke-width="2"/>
    <circle cx="0" cy="-60" r="8" fill="#F2B91C"/>
    <path d="M0 -75 L0 -90" stroke="#F2B91C" stroke-width="2"/>
    <circle cx="0" cy="-95" r="5" fill="#F2B91C"/>
    <path d="M-30 20 L30 20 M-30 35 L30 35" stroke="#F2B91C" stroke-width="1.5" opacity="0.7"/>
  </g>
</svg>
